<?xml version="1.0" encoding="UTF-8" standalone="no"?>
<!-- Created with Inkscape (http://www.inkscape.org/) -->

<svg
   xmlns:dc="http://purl.org/dc/elements/1.1/"
   xmlns:cc="http://creativecommons.org/ns#"
   xmlns:rdf="http://www.w3.org/1999/02/22-rdf-syntax-ns#"
   xmlns:svg="http://www.w3.org/2000/svg"
   xmlns="http://www.w3.org/2000/svg"
   xmlns:sodipodi="http://sodipodi.sourceforge.net/DTD/sodipodi-0.dtd"
   xmlns:inkscape="http://www.inkscape.org/namespaces/inkscape"
   width="210mm"
   height="297mm"
   viewBox="0 0 210 297"
   version="1.1"
   id="svg8"
   inkscape:version="0.92.4 (5da689c313, 2019-01-14)"
   sodipodi:docname="LogoSklep.svg">
  <defs
     id="defs2">
    <marker
       inkscape:stockid="Arrow1Lend"
       orient="auto"
       refY="0.0"
       refX="0.0"
       id="Arrow1Lend"
       style="overflow:visible;"
       inkscape:isstock="true">
      <path
         id="path4598"
         d="M 0.0,0.0 L 5.0,-5.0 L -12.5,0.0 L 5.0,5.0 L 0.0,0.0 z "
         style="fill-rule:evenodd;stroke:#020306;stroke-width:1pt;stroke-opacity:1;fill:#ffffff;fill-opacity:0.94117647"
         transform="scale(0.8) rotate(180) translate(12.5,0)" />
    </marker>
  </defs>
  <sodipodi:namedview
     id="base"
     pagecolor="#ffffff"
     bordercolor="#666666"
     borderopacity="1.0"
     inkscape:pageopacity="0.0"
     inkscape:pageshadow="2"
     inkscape:zoom="1"
     inkscape:cx="324.46851"
     inkscape:cy="872.07151"
     inkscape:document-units="mm"
     inkscape:current-layer="layer1"
     showgrid="false"
     inkscape:window-width="1292"
     inkscape:window-height="745"
     inkscape:window-x="-8"
     inkscape:window-y="-8"
     inkscape:window-maximized="1" />
  <metadata
     id="metadata5">
    <rdf:RDF>
      <cc:Work
         rdf:about="">
        <dc:format>image/svg+xml</dc:format>
        <dc:type
           rdf:resource="http://purl.org/dc/dcmitype/StillImage" />
        <dc:title></dc:title>
      </cc:Work>
    </rdf:RDF>
  </metadata>
  <g
     inkscape:label="Layer 1"
     inkscape:groupmode="layer"
     id="layer1">
    <g
       id="g4535"
       transform="matrix(0.08567882,0,0,0.07313222,24.074156,177.59977)"
       style="stroke-width:63.16534719;stroke-miterlimit:4;stroke-dasharray:none">
      <g
         id="g4533"
         transform="matrix(0.1,0,0,-0.1,-359.09998,-1803.4409)"
         style="stroke-width:631.65347193;stroke-miterlimit:4;stroke-dasharray:none" />
      <flowRoot
         xml:space="preserve"
         id="flowRoot4546"
         style="font-style:italic;font-variant:normal;font-weight:normal;font-stretch:normal;font-size:53.33333206px;line-height:1.25;font-family:Elephant;-inkscape-font-specification:'Elephant Italic';letter-spacing:0px;word-spacing:0px;fill:#000000;fill-opacity:1;stroke:none;stroke-width:18.89763782;stroke-miterlimit:4;stroke-dasharray:none"
         transform="matrix(3.0880833,0,0,3.6178764,-325.09689,-2402.6331)"><flowRegion
           id="flowRegion4548"
           style="font-style:italic;font-variant:normal;font-weight:normal;font-stretch:normal;font-size:53.33333206px;font-family:Elephant;-inkscape-font-specification:'Elephant Italic';stroke-width:18.89763782;stroke-miterlimit:4;stroke-dasharray:none"><rect
             id="rect4550"
             width="272.85715"
             height="82.85714"
             x="312.85715"
             y="168.23396"
             style="font-style:italic;font-variant:normal;font-weight:normal;font-stretch:normal;font-size:53.33333206px;font-family:Elephant;-inkscape-font-specification:'Elephant Italic';stroke-width:18.89763782;stroke-miterlimit:4;stroke-dasharray:none" /></flowRegion><flowPara
           id="flowPara4552" /></flowRoot>      <g
         id="g55">
        <path
           style="opacity:1;fill:#fbfbfb;fill-opacity:0.94117647;fill-rule:nonzero;stroke:#020306;stroke-width:11.33858299;stroke-linecap:butt;stroke-linejoin:round;stroke-miterlimit:4;stroke-dasharray:none;stroke-dashoffset:0;stroke-opacity:1;paint-order:stroke fill markers"
           d="M 174.54688 50.626953 A 138.51121 138.51122 0 0 0 36.035156 189.13867 A 138.51121 138.51122 0 0 0 174.54688 327.65039 A 138.51121 138.51122 0 0 0 313.05664 189.13867 A 138.51121 138.51122 0 0 0 174.54688 50.626953 z M 544.87305 187.29688 C 541.17527 187.29687 538.00276 188.36276 535.35742 190.49609 C 532.71209 192.62943 531.38867 195.13297 531.38867 198.00586 C 531.38867 200.90719 532.78276 203.34007 535.57031 205.30273 C 537.95965 206.63962 540.00818 207.7907 541.71484 208.75781 C 543.44995 209.69648 544.60103 210.53584 545.16992 211.27539 C 545.73881 212.01495 546.02344 212.81073 546.02344 213.66406 C 546.02344 214.94406 545.49776 216.08257 544.44531 217.07812 C 543.39287 218.07368 542.01331 218.57227 540.30664 218.57227 C 538.45775 218.57227 536.82261 218.18792 535.40039 217.41992 C 534.00661 216.62348 533.0114 215.58469 532.41406 214.30469 C 531.84517 212.99624 531.46083 211.84516 531.26172 210.84961 C 531.06261 209.85405 530.96289 208.67197 530.96289 207.30664 C 530.96289 206.96531 530.97741 206.41058 531.00586 205.64258 C 531.0343 204.84613 531.06335 204.24978 531.0918 203.85156 L 530.32227 203.85156 L 524.00781 219.38281 L 524.73438 219.38281 C 525.21793 218.4157 525.89947 217.50568 526.78125 216.65234 C 527.69147 215.77057 528.43111 215.32812 529 215.32812 C 530.792 216.26679 532.59752 217.17682 534.41797 218.05859 C 536.23841 218.94037 538.06041 219.38281 539.88086 219.38281 C 544.03375 219.38281 547.45989 218.37307 550.16211 216.35352 C 552.86433 214.33396 554.2168 211.77232 554.2168 208.67188 C 554.2168 207.13587 553.8034 205.72922 552.97852 204.44922 C 552.18207 203.16922 551.23043 202.18657 550.12109 201.50391 C 549.01176 200.7928 547.55958 199.95539 545.76758 198.98828 C 543.97558 197.99273 542.71026 197.28018 541.9707 196.85352 C 541.23115 196.42685 540.5767 195.8305 540.00781 195.0625 C 539.46737 194.2945 539.19727 193.46967 539.19727 192.58789 C 539.19727 191.22256 539.80814 190.14019 541.03125 189.34375 C 542.28281 188.51886 543.63527 188.10742 545.08594 188.10742 C 546.96327 188.10742 548.4135 188.44819 549.4375 189.13086 C 550.4615 189.78508 551.17209 190.59539 551.57031 191.5625 C 551.96853 192.50117 552.21154 193.3841 552.29688 194.20898 C 552.41065 195.00543 552.4668 195.9716 552.4668 197.10938 C 552.4668 197.82049 552.45227 198.43331 552.42383 198.94531 C 552.39538 199.45731 552.35376 199.8978 552.29688 200.26758 L 553.06445 200.26758 L 558.3125 187.29688 L 557.50195 187.29688 C 556.96151 188.2071 556.46292 188.88864 556.00781 189.34375 C 555.5527 189.79886 554.98345 190.02734 554.30078 190.02734 C 552.87856 189.40157 551.4719 188.77617 550.07812 188.15039 C 548.54212 187.5815 546.80727 187.29688 544.87305 187.29688 z M 596.31836 187.33984 C 595.20903 187.33984 594.25543 187.70966 593.45898 188.44922 C 592.66254 189.18877 592.26367 190.14042 592.26367 191.30664 C 592.26367 192.44442 592.64802 193.39802 593.41602 194.16602 C 594.21246 194.90557 595.18058 195.27539 596.31836 195.27539 C 597.42769 195.27539 598.37934 194.90557 599.17578 194.16602 C 600.00067 193.39802 600.41406 192.44442 600.41406 191.30664 C 600.41406 190.14042 600.01519 189.18877 599.21875 188.44922 C 598.42231 187.70966 597.45614 187.33984 596.31836 187.33984 z M 477.64844 187.76562 L 472.14453 201.46289 L 472.87109 201.46289 C 475.31732 198.44778 477.97672 195.60347 480.84961 192.92969 C 483.75094 190.22747 486.01148 188.80433 487.63281 188.66211 L 488.82812 188.5332 C 488.20235 190.12609 487.39204 192.17462 486.39648 194.67773 C 485.40093 197.18085 484.13366 200.33883 482.59766 204.15039 C 481.0901 207.96195 479.88093 210.9205 478.9707 213.02539 C 478.06048 215.13028 477.34989 216.46627 476.83789 217.03516 C 476.35434 217.5756 475.5876 217.9038 474.53516 218.01758 L 472.1875 218.1875 L 472.1875 218.86914 L 492.45508 218.86914 L 492.45508 218.1875 C 489.63908 218.1875 488.23047 217.78863 488.23047 216.99219 C 488.23047 216.48019 488.58576 215.32911 489.29688 213.53711 L 499.36523 188.57617 L 500.68945 188.66211 C 501.91256 188.66211 502.9494 189.75704 503.80273 191.94727 C 504.68451 194.13749 505.12695 197.31 505.12695 201.46289 L 505.85156 201.46289 L 511.35547 187.76562 L 477.64844 187.76562 z M 562.10742 187.76562 L 562.10742 188.44922 L 563.98438 188.5332 C 564.92304 188.5332 565.39258 188.8614 565.39258 189.51562 C 565.39258 189.82851 565.30739 190.21286 565.13672 190.66797 C 564.9945 191.12308 564.59563 192.15992 563.94141 193.78125 C 563.31563 195.40258 562.23522 198.10556 560.69922 201.88867 C 559.19166 205.64334 557.85372 208.94266 556.6875 211.78711 C 555.52128 214.63155 554.55511 216.99181 553.78711 218.86914 L 562.06445 218.86914 L 567.3125 206.02734 C 568.0805 204.17845 568.89081 202.75532 569.74414 201.75977 C 570.59747 200.73577 571.26644 200.06875 571.75 199.75586 C 572.23356 199.44297 572.73019 199.28516 573.24219 199.28516 C 573.49819 199.28516 573.6831 199.35778 573.79688 199.5 C 573.9391 199.64222 574.01172 199.86875 574.01172 200.18164 C 574.01172 200.94964 573.61285 202.08815 572.81641 203.5957 C 572.01996 205.10326 571.28032 206.52444 570.59766 207.86133 C 569.91499 209.16977 569.36026 210.25214 568.93359 211.10547 C 568.47848 212.2148 568.25 213.32426 568.25 214.43359 C 568.25 215.85582 568.63434 217.02142 569.40234 217.93164 C 570.19879 218.84186 571.35182 219.29688 572.85938 219.29688 C 574.99271 219.29688 576.61332 218.72762 577.72266 217.58984 C 578.83199 216.42362 580.04116 214.71781 581.34961 212.4707 L 580.79492 212.21484 C 580.51048 212.75529 580.15518 213.35164 579.72852 214.00586 C 579.30185 214.66008 578.66193 215.49944 577.80859 216.52344 C 576.9837 217.51899 576.18597 218.01758 575.41797 218.01758 C 575.19041 218.01758 575.0055 217.95948 574.86328 217.8457 C 574.7495 217.73193 574.69336 217.57606 574.69336 217.37695 C 574.69336 216.95029 575.17742 215.81178 576.14453 213.96289 C 577.14009 212.114 578.00654 210.40819 578.74609 208.84375 C 579.48565 207.27931 579.95519 206.21147 580.1543 205.64258 C 580.38185 205.07369 580.49609 204.30695 580.49609 203.33984 C 580.49609 201.63318 579.94136 200.35333 578.83203 199.5 C 577.75114 198.64667 576.51487 198.21875 575.12109 198.21875 C 573.49976 198.21875 572.30511 198.53243 571.53711 199.1582 C 570.79755 199.78398 569.87301 200.73758 568.76367 202.01758 L 574.69336 187.76562 L 562.10742 187.76562 z M 681.3457 187.76562 L 681.3457 188.44922 C 682.59726 188.44922 683.44919 188.51989 683.9043 188.66211 C 684.38785 188.77589 684.63086 189.06051 684.63086 189.51562 C 684.63086 189.82851 684.55824 190.18381 684.41602 190.58203 C 684.30224 190.98025 684.07571 191.60565 683.73438 192.45898 L 676.39648 210.63477 C 676.11204 211.31743 675.89808 211.93026 675.75586 212.4707 C 675.61364 213.01115 675.54297 213.6075 675.54297 214.26172 C 675.54297 215.57016 676.0396 216.73577 677.03516 217.75977 C 678.03071 218.78377 679.29603 219.29688 680.83203 219.29688 C 682.59559 219.29687 684.03324 218.7131 685.14258 217.54688 C 686.28036 216.38065 687.61634 214.53156 689.15234 212 L 688.55469 211.70117 C 688.09958 212.44073 687.58842 213.22394 687.01953 214.04883 C 686.47909 214.87372 685.81012 215.75469 685.01367 216.69336 C 684.24567 217.63203 683.47894 218.10156 682.71094 218.10156 C 682.54027 218.10156 682.39698 218.04542 682.2832 217.93164 C 682.16943 217.81786 682.11328 217.63295 682.11328 217.37695 C 682.11328 217.06406 682.1549 216.76491 682.24023 216.48047 C 682.35401 216.19602 683.3928 213.65086 685.35547 208.84375 C 687.31814 204.00819 688.99685 199.88404 690.39062 196.4707 C 691.7844 193.02893 692.96453 190.12651 693.93164 187.76562 L 681.3457 187.76562 z M 631.51367 190.41211 L 628.10156 198.64648 L 624.43164 198.64648 L 623.87695 200.01172 L 627.54688 200.01172 L 623.10938 210.63477 C 622.76804 211.51654 622.52503 212.20004 622.38281 212.68359 C 622.24059 213.1387 622.16992 213.67891 622.16992 214.30469 C 622.16992 215.67002 622.58331 216.85015 623.4082 217.8457 C 624.23309 218.81281 625.46936 219.29688 627.11914 219.29688 C 629.02492 219.29687 630.61844 218.69857 631.89844 217.50391 C 633.20688 216.30924 634.55739 214.54729 635.95117 212.21484 L 635.39648 211.91602 C 635.02671 212.62713 634.54265 213.39386 633.94531 214.21875 C 633.37642 215.04364 632.82169 215.74166 632.28125 216.31055 C 631.74081 216.85099 631.21513 217.29148 630.70312 217.63281 C 630.21957 217.9457 629.79361 218.10156 629.42383 218.10156 C 629.22472 218.10156 629.06886 218.04542 628.95508 217.93164 C 628.8413 217.78942 628.7832 217.58998 628.7832 217.33398 C 628.7832 217.10643 628.81225 216.8799 628.86914 216.65234 C 628.92603 216.42479 629.05284 216.06754 629.25195 215.58398 L 635.69531 200.01172 L 640.47461 200.01172 L 641.0293 198.64648 L 636.29297 198.64648 L 639.74805 190.41211 L 631.51367 190.41211 z M 358.45703 198.21875 C 356.38059 198.21875 354.70383 198.93129 353.42383 200.35352 C 352.17227 201.74729 350.905 203.58187 349.625 205.85742 L 350.17969 206.11328 C 350.72013 205.14617 351.20419 204.32134 351.63086 203.63867 C 352.05753 202.92756 352.48349 202.32926 352.91016 201.8457 C 353.33682 201.36215 353.86446 200.86552 354.49023 200.35352 C 355.11601 199.81307 355.59812 199.54297 355.93945 199.54297 C 356.16701 199.54297 356.33935 199.59911 356.45312 199.71289 C 356.5669 199.82667 356.62305 200.01158 356.62305 200.26758 C 356.62305 200.60891 356.05379 201.88876 354.91602 204.10742 C 353.77824 206.29764 352.98245 207.84759 352.52734 208.75781 C 352.10068 209.66803 351.70181 210.63616 351.33203 211.66016 C 350.96225 212.65571 350.77734 213.53669 350.77734 214.30469 C 350.77734 215.98291 351.24688 217.2337 352.18555 218.05859 C 353.15266 218.88348 354.30374 219.29688 355.64062 219.29688 C 357.46107 219.29687 358.91325 218.79829 359.99414 217.80273 C 361.10347 216.80718 362.19841 215.3279 363.2793 213.36523 C 363.2793 215.38479 363.94827 216.87859 365.28516 217.8457 C 366.62205 218.81281 368.28428 219.29688 370.27539 219.29688 C 374.11539 219.29687 377.61415 217.37711 380.77148 213.53711 C 383.95726 209.69711 385.55078 205.99892 385.55078 202.44336 C 385.55078 201.13491 385.23711 200.11065 384.61133 199.37109 C 384.01399 198.60309 383.10397 198.21875 381.88086 198.21875 C 380.97064 198.21875 380.16033 198.54695 379.44922 199.20117 C 378.73811 199.85539 378.38281 200.70732 378.38281 201.75977 C 378.38281 203.29577 379.0934 204.54851 380.51562 205.51562 C 381.93785 206.48274 382.65039 207.42181 382.65039 208.33203 C 382.65039 210.12403 381.42669 212.18513 378.98047 214.51758 C 376.53425 216.85002 374.34438 218.01758 372.41016 218.01758 C 371.75593 218.01758 371.24282 217.90334 370.87305 217.67578 C 370.53171 217.44823 370.36133 217.00774 370.36133 216.35352 C 370.36133 215.58552 370.61691 214.57577 371.12891 213.32422 C 371.64091 212.04422 372.36602 210.39456 373.30469 208.375 L 377.87109 198.64648 L 369.55078 198.64648 L 363.53516 211.48828 C 362.62493 213.33717 361.67134 214.90164 360.67578 216.18164 C 359.68023 217.4332 358.84087 218.05859 358.1582 218.05859 C 357.9022 218.05859 357.70472 217.98793 357.5625 217.8457 C 357.42028 217.70348 357.34766 217.48952 357.34766 217.20508 C 357.34766 216.86374 357.42028 216.49588 357.5625 216.09766 C 357.70472 215.69943 357.87511 215.30057 358.07422 214.90234 L 361.31641 208.375 C 362.02752 206.89589 362.48253 205.87162 362.68164 205.30273 C 362.88075 204.73385 362.98047 203.95063 362.98047 202.95508 C 362.98047 201.61819 362.59613 200.49421 361.82812 199.58398 C 361.08857 198.67376 359.96459 198.21875 358.45703 198.21875 z M 394.70703 198.21875 C 392.63059 198.21875 390.95383 198.93129 389.67383 200.35352 C 388.42227 201.74729 387.155 203.58187 385.875 205.85742 L 386.42969 206.11328 C 386.97013 205.14617 387.45419 204.32134 387.88086 203.63867 C 388.30753 202.92756 388.73349 202.32926 389.16016 201.8457 C 389.58682 201.36215 390.11446 200.86552 390.74023 200.35352 C 391.36601 199.81307 391.84812 199.54297 392.18945 199.54297 C 392.41701 199.54297 392.58935 199.59911 392.70312 199.71289 C 392.8169 199.82667 392.87305 200.01158 392.87305 200.26758 C 392.87305 200.60891 392.30379 201.88876 391.16602 204.10742 C 390.02824 206.29764 389.23245 207.84759 388.77734 208.75781 C 388.35068 209.66803 387.95181 210.63616 387.58203 211.66016 C 387.21225 212.65571 387.02734 213.53669 387.02734 214.30469 C 387.02734 215.98291 387.49688 217.2337 388.43555 218.05859 C 389.40266 218.88348 390.55374 219.29688 391.89062 219.29688 C 393.71107 219.29687 395.16325 218.79829 396.24414 217.80273 C 397.35347 216.80718 398.44841 215.3279 399.5293 213.36523 C 399.5293 215.38479 400.19827 216.87859 401.53516 217.8457 C 402.87205 218.81281 404.53428 219.29688 406.52539 219.29688 C 410.36539 219.29687 413.86415 217.37711 417.02148 213.53711 C 420.20726 209.69711 421.80078 205.99892 421.80078 202.44336 C 421.80078 201.13491 421.48711 200.11065 420.86133 199.37109 C 420.26399 198.60309 419.35397 198.21875 418.13086 198.21875 C 417.22064 198.21875 416.41033 198.54695 415.69922 199.20117 C 414.98811 199.85539 414.63281 200.70732 414.63281 201.75977 C 414.63281 203.29577 415.3434 204.54851 416.76562 205.51562 C 418.18785 206.48274 418.90039 207.42181 418.90039 208.33203 C 418.90039 210.12403 417.67669 212.18513 415.23047 214.51758 C 412.78425 216.85002 410.59438 218.01758 408.66016 218.01758 C 408.00593 218.01758 407.49282 217.90334 407.12305 217.67578 C 406.78171 217.44823 406.61133 217.00774 406.61133 216.35352 C 406.61133 215.58552 406.86691 214.57577 407.37891 213.32422 C 407.89091 212.04422 408.61602 210.39456 409.55469 208.375 L 414.12109 198.64648 L 405.80078 198.64648 L 399.78516 211.48828 C 398.87493 213.33717 397.92134 214.90164 396.92578 216.18164 C 395.93023 217.4332 395.09087 218.05859 394.4082 218.05859 C 394.1522 218.05859 393.95472 217.98793 393.8125 217.8457 C 393.67028 217.70348 393.59766 217.48952 393.59766 217.20508 C 393.59766 216.86374 393.67028 216.49588 393.8125 216.09766 C 393.95472 215.69943 394.12511 215.30057 394.32422 214.90234 L 397.56641 208.375 C 398.27752 206.89589 398.73253 205.87162 398.93164 205.30273 C 399.13075 204.73385 399.23047 203.95063 399.23047 202.95508 C 399.23047 201.61819 398.84613 200.49421 398.07812 199.58398 C 397.33857 198.67376 396.21459 198.21875 394.70703 198.21875 z M 430.95703 198.21875 C 428.88059 198.21875 427.20383 198.93129 425.92383 200.35352 C 424.67227 201.74729 423.405 203.58187 422.125 205.85742 L 422.67969 206.11328 C 423.22013 205.14617 423.70419 204.32134 424.13086 203.63867 C 424.55753 202.92756 424.98349 202.32926 425.41016 201.8457 C 425.83682 201.36215 426.36446 200.86552 426.99023 200.35352 C 427.61601 199.81307 428.09812 199.54297 428.43945 199.54297 C 428.66701 199.54297 428.83935 199.59911 428.95312 199.71289 C 429.0669 199.82667 429.12305 200.01158 429.12305 200.26758 C 429.12305 200.60891 428.55379 201.88876 427.41602 204.10742 C 426.27824 206.29764 425.48245 207.84759 425.02734 208.75781 C 424.60068 209.66803 424.20181 210.63616 423.83203 211.66016 C 423.46225 212.65571 423.27734 213.53669 423.27734 214.30469 C 423.27734 215.98291 423.74688 217.2337 424.68555 218.05859 C 425.65266 218.88348 426.80374 219.29688 428.14062 219.29688 C 429.96107 219.29687 431.41325 218.79829 432.49414 217.80273 C 433.60347 216.80718 434.69841 215.3279 435.7793 213.36523 C 435.7793 215.38479 436.44827 216.87859 437.78516 217.8457 C 439.12205 218.81281 440.78428 219.29688 442.77539 219.29688 C 446.61539 219.29687 450.11415 217.37711 453.27148 213.53711 C 456.45726 209.69711 458.05078 205.99892 458.05078 202.44336 C 458.05078 201.13491 457.73711 200.11065 457.11133 199.37109 C 456.51399 198.60309 455.60397 198.21875 454.38086 198.21875 C 453.47064 198.21875 452.66033 198.54695 451.94922 199.20117 C 451.23811 199.85539 450.88281 200.70732 450.88281 201.75977 C 450.88281 203.29577 451.5934 204.54851 453.01562 205.51562 C 454.43785 206.48274 455.15039 207.42181 455.15039 208.33203 C 455.15039 210.12403 453.92669 212.18513 451.48047 214.51758 C 449.03425 216.85002 446.84438 218.01758 444.91016 218.01758 C 444.25593 218.01758 443.74282 217.90334 443.37305 217.67578 C 443.03171 217.44823 442.86133 217.00774 442.86133 216.35352 C 442.86133 215.58552 443.11691 214.57577 443.62891 213.32422 C 444.14091 212.04422 444.86602 210.39456 445.80469 208.375 L 450.37109 198.64648 L 442.05078 198.64648 L 436.03516 211.48828 C 435.12493 213.33717 434.17134 214.90164 433.17578 216.18164 C 432.18023 217.4332 431.34087 218.05859 430.6582 218.05859 C 430.4022 218.05859 430.20472 217.98793 430.0625 217.8457 C 429.92028 217.70348 429.84766 217.48952 429.84766 217.20508 C 429.84766 216.86374 429.92028 216.49588 430.0625 216.09766 C 430.20472 215.69943 430.37511 215.30057 430.57422 214.90234 L 433.81641 208.375 C 434.52752 206.89589 434.98253 205.87162 435.18164 205.30273 C 435.38075 204.73385 435.48047 203.95063 435.48047 202.95508 C 435.48047 201.61819 435.09613 200.49421 434.32812 199.58398 C 433.58857 198.67376 432.46459 198.21875 430.95703 198.21875 z M 591.58203 198.21875 C 590.18825 198.21875 588.89389 198.66119 587.69922 199.54297 C 586.533 200.42475 585.15344 202.28641 583.56055 205.13086 L 584.11523 205.38672 C 584.88323 203.9645 585.6374 202.81342 586.37695 201.93164 C 587.14495 201.02142 587.75583 200.39602 588.21094 200.05469 C 588.69449 199.68491 589.03526 199.5 589.23438 199.5 C 589.43349 199.5 589.57678 199.55614 589.66211 199.66992 C 589.77589 199.75526 589.83203 199.89855 589.83203 200.09766 C 589.83203 200.32521 589.73231 200.68051 589.5332 201.16406 C 589.33409 201.64762 588.90813 202.55764 588.25391 203.89453 C 587.59968 205.23142 586.831 206.75232 585.94922 208.45898 C 585.09589 210.16565 584.52663 211.38935 584.24219 212.12891 C 583.98619 212.84002 583.85938 213.65032 583.85938 214.56055 C 583.85938 215.92588 584.25629 217.06439 585.05273 217.97461 C 585.84918 218.85639 587.01673 219.29688 588.55273 219.29688 C 590.65762 219.29688 592.22209 218.74215 593.24609 217.63281 C 594.29854 216.52348 595.59291 214.71795 597.12891 212.21484 L 596.57422 211.91602 C 596.23289 212.54179 595.79044 213.25238 595.25 214.04883 C 594.738 214.81683 594.24137 215.50032 593.75781 216.09766 C 593.27426 216.69499 592.77567 217.1771 592.26367 217.54688 C 591.75167 217.88821 591.34023 218.05859 591.02734 218.05859 C 590.77134 218.05859 590.57191 218.00245 590.42969 217.88867 C 590.31591 217.74645 590.25977 217.54702 590.25977 217.29102 C 590.25977 216.75057 590.78545 215.55592 591.83789 213.70703 C 592.89034 211.8297 593.71517 210.27975 594.3125 209.05664 C 594.90983 207.80509 595.37937 206.71015 595.7207 205.77148 C 596.06204 204.83282 596.23242 203.99346 596.23242 203.25391 C 596.23242 201.57568 595.76289 200.32489 594.82422 199.5 C 593.914 198.64667 592.83359 198.21875 591.58203 198.21875 z M 607.7168 198.21875 C 606.09546 198.21875 604.63071 198.73186 603.32227 199.75586 C 602.01382 200.75141 600.46388 202.97033 598.67188 206.41211 L 599.22656 206.625 C 599.59634 205.91389 600.09493 205.06001 600.7207 204.06445 C 601.34648 203.0689 601.85764 202.31473 602.25586 201.80273 C 602.68253 201.26229 603.12301 200.80728 603.57812 200.4375 C 604.03324 200.06772 604.4321 199.88281 604.77344 199.88281 C 604.97255 199.88281 605.11584 199.94091 605.20117 200.05469 C 605.28651 200.16847 605.32812 200.35337 605.32812 200.60938 C 605.32812 200.92226 605.27198 201.27756 605.1582 201.67578 C 605.04443 202.04556 604.91566 202.37181 604.77344 202.65625 L 597.43555 218.86914 L 605.75391 218.86914 L 611.94141 206.02734 C 612.73785 204.32068 613.49201 202.92659 614.20312 201.8457 C 614.94268 200.73637 615.52646 200.18164 615.95312 200.18164 C 616.23757 200.18164 616.37891 200.31041 616.37891 200.56641 C 616.09446 201.04996 615.82436 201.50497 615.56836 201.93164 C 615.3408 202.35831 615.22656 202.82784 615.22656 203.33984 C 615.22656 204.39229 615.59638 205.21712 616.33594 205.81445 C 617.10394 206.38334 617.99944 206.66797 619.02344 206.66797 C 620.18966 206.66797 621.15778 206.22553 621.92578 205.34375 C 622.69378 204.46197 623.07812 203.39609 623.07812 202.14453 C 623.07812 201.17742 622.7354 200.28192 622.05273 199.45703 C 621.39851 198.63214 620.4033 198.21875 619.06641 198.21875 C 617.21752 198.21875 615.78181 198.8461 614.75781 200.09766 C 613.76226 201.34921 612.60923 203.32512 611.30078 206.02734 L 611.17383 205.98438 C 611.28761 205.69993 611.41442 205.27397 611.55664 204.70508 C 611.69886 204.13619 611.77148 203.56694 611.77148 202.99805 C 611.77148 201.51894 611.42876 200.35333 610.74609 199.5 C 610.09187 198.64667 609.08213 198.21875 607.7168 198.21875 z M 656.85938 198.21875 C 655.01049 198.21875 653.38987 199.01649 651.99609 200.60938 C 650.60232 202.17382 649.36605 204.07906 648.28516 206.32617 L 648.83984 206.58203 C 649.23807 205.75714 649.7347 204.88874 650.33203 203.97852 C 650.95781 203.03985 651.54159 202.25859 652.08203 201.63281 C 652.62248 200.97859 653.10458 200.48001 653.53125 200.13867 C 653.98636 199.79734 654.39975 199.62695 654.76953 199.62695 C 654.96864 199.62695 655.10998 199.69762 655.19531 199.83984 C 655.28065 199.95362 655.32422 200.13853 655.32422 200.39453 C 655.32422 200.67898 655.26807 201.0217 655.1543 201.41992 C 655.04052 201.7897 654.8827 202.20114 654.68359 202.65625 L 645.98047 223.30664 C 645.07025 225.41153 644.37223 226.66428 643.88867 227.0625 C 643.40512 227.48917 642.86491 227.74474 642.26758 227.83008 C 641.6418 227.91541 641.18679 227.97156 640.90234 228 C 640.6179 228.02844 640.39137 228.04297 640.2207 228.04297 L 640.2207 228.72656 L 656.5625 228.72656 L 656.5625 228.04297 C 654.99806 228.04297 653.98636 227.98682 653.53125 227.87305 C 653.10458 227.78771 652.89258 227.51761 652.89258 227.0625 C 652.89258 226.83494 652.9923 226.42155 653.19141 225.82422 L 653.87305 224.0332 C 654.1006 223.43587 654.57014 222.25574 655.28125 220.49219 C 656.02081 218.75708 656.7314 217.10741 657.41406 215.54297 C 657.41406 217.02208 657.81293 218.0173 658.60938 218.5293 C 659.40582 219.0413 660.44461 219.29688 661.72461 219.29688 C 665.25172 219.29687 668.2519 217.76145 670.72656 214.68945 C 673.22967 211.58901 674.48242 208.47264 674.48242 205.34375 C 674.48242 203.12508 673.8696 201.39023 672.64648 200.13867 C 671.42337 198.85867 669.98767 198.21875 668.33789 198.21875 C 666.63122 198.21875 665.32233 198.74638 664.41211 199.79883 C 663.53033 200.82283 662.53511 202.37277 661.42578 204.44922 L 661.51172 203.38281 C 661.51172 201.73303 661.09833 200.46576 660.27344 199.58398 C 659.47699 198.67376 658.33849 198.21875 656.85938 198.21875 z M 666.58789 199.28516 C 666.90078 199.28516 667.12926 199.41392 667.27148 199.66992 C 667.44215 199.89748 667.52734 200.2673 667.52734 200.7793 C 667.52734 201.83174 667.01423 203.69536 665.99023 206.36914 C 664.99468 209.04292 664.07013 211.20374 663.2168 212.85352 C 662.36346 214.50329 661.6674 215.77057 661.12695 216.65234 C 660.61495 217.50568 660.01665 217.93164 659.33398 217.93164 C 658.90732 217.93164 658.58107 217.78835 658.35352 217.50391 C 658.1544 217.19102 658.05469 216.75053 658.05469 216.18164 C 658.05469 215.15764 658.53875 213.36664 659.50586 210.80664 C 660.50141 208.2182 661.36787 206.14062 662.10742 204.57617 C 662.84698 202.98328 663.61566 201.70344 664.41211 200.73633 C 665.20855 199.76922 665.93367 199.28516 666.58789 199.28516 z M 462.30078 210.97656 C 461.13456 210.97656 460.13934 211.37543 459.31445 212.17188 C 458.48956 212.96832 458.07617 213.93449 458.07617 215.07227 C 458.07617 216.23849 458.48956 217.22113 459.31445 218.01758 C 460.13934 218.81402 461.13456 219.21094 462.30078 219.21094 C 463.49545 219.21094 464.50519 218.81402 465.33008 218.01758 C 466.15497 217.22113 466.56836 216.23849 466.56836 215.07227 C 466.56836 213.90604 466.14044 212.93988 465.28711 212.17188 C 464.46222 211.37543 463.467 210.97656 462.30078 210.97656 z M 641.38477 210.97656 C 640.21854 210.97656 639.22333 211.37543 638.39844 212.17188 C 637.57355 212.96832 637.16016 213.93449 637.16016 215.07227 C 637.16016 216.23849 637.57355 217.22113 638.39844 218.01758 C 639.22333 218.81402 640.21854 219.21094 641.38477 219.21094 C 642.57943 219.21094 643.58917 218.81402 644.41406 218.01758 C 645.23895 217.22113 645.65039 216.23849 645.65039 215.07227 C 645.65039 213.90604 645.22443 212.93988 644.37109 212.17188 C 643.5462 211.37543 642.55099 210.97656 641.38477 210.97656 z M 503.57031 222.49609 L 503.57031 225.82422 L 524.9043 225.82422 L 524.9043 222.49609 L 503.57031 222.49609 z "
           transform="matrix(3.0880833,0,0,3.6178764,-280.98141,-2428.475)"
           id="path4593" />
        <path
           style="stroke-width:631.65347193;stroke-miterlimit:4;stroke-dasharray:none"
           inkscape:connector-curvature="0"
           d="M 4772.3656,2637.2961 C 3983.8528,2417.1947 3399.3773,2146.0839 3228.8386,1920.1964 2972.3455,1582.0121 2766.7855,743.93655 2666.2134,-362.2806 c -26.266,-297.30062 -21.8503,-314.81128 115.1136,-377.469 294.4836,-139.93305 769.6317,-272.5573 1065.4858,-297.3768 l 43.7005,-4.3396 7.3088,-1670.2889 c 7.3088,-1639.6833 7.3088,-1671.7354 36.4679,-1703.8637 32.0521,-36.4679 80.1684,-58.3181 255.0466,-119.5293 794.3751,-275.4504 2302.8807,-326.4597 3337.6848,-112.2205 332.3219,69.9665 631.0691,173.4317 686.4941,240.5051 17.5107,21.8503 21.8503,272.5573 27.7126,1695.1084 l 7.3088,1668.8424 144.2726,18.9572 c 271.1108,33.49867 709.7909,163.22985 964.8376,282.75916 109.3274,52.45586 139.933,102.01865 129.7312,211.3461 -4.3396,39.36093 -17.5107,176.40091 -29.1591,304.60942 -97.6791,1015.92303 -303.1629,1820.42382 -548.0077,2145.43702 -169.0921,225.8875 -773.9713,507.2001 -1528.9093,711.2374 -220.1014,59.7647 -190.9424,59.7647 -561.1787,-4.3396 -733.1639,-125.3154 -776.8644,-125.3154 -1542.0804,5.8623 -160.3368,27.7125 -304.6094,49.5628 -322.1201,48.1163 -17.4345,-1.5227 -99.0495,-20.4799 -183.5574,-43.7767 z m 129.655,-371.6829 c 20.4037,-36.4678 83.0615,-109.3274 139.933,-163.2298 451.8513,-421.2457 1378.7745,-469.2858 1934.0909,-100.5721 102.0187,68.52 220.1015,188.0493 262.3555,266.7711 18.9572,34.9452 39.3609,64.1043 45.147,64.1043 24.8195,0 311.9182,-87.4772 505.7537,-153.028 494.1052,-170.5386 807.47,-339.6307 910.9351,-496.9983 126.8382,-190.9424 256.4932,-634.0383 348.3861,-1187.90821 75.7527,-464.946188 132.6243,-957.60491 110.774,-979.45517 -5.8623,-7.3088 -103.4652,-45.14706 -214.2392,-83.06145 -205.4838,-71.41306 -464.9461,-135.51731 -622.3899,-154.47451 l -84.5079,-10.20187 7.3088,494.10526 c 5.8622,430.00099 10.2018,510.16938 36.4678,620.86723 40.8075,169.0921 106.4344,323.56661 177.8475,412.49033 87.4771,109.32745 106.3582,158.89024 87.4771,220.10139 -21.8502,67.0735 -78.7218,107.881 -147.1657,107.881 -45.2232,0 -69.9665,-11.6484 -115.1897,-52.4559 C 8162.5823,959.77452 8037.1908,701.83482 7970.1934,421.96874 7945.4501,321.39662 7943.9274,156.72025 7935.2482,-1952.325 l -7.3088,-2264.9663 -131.1777,-40.8075 c -443.0959,-138.4865 -1010.0607,-205.4838 -1727.1605,-205.4838 -714.2067,0 -1284.0646,67.0735 -1727.1605,205.4838 l -131.1777,40.8075 -8.7553,2264.9663 c -8.7554,2447.15333 -2.8931,2302.88068 -80.1684,2543.38584 -67.0735,205.48384 -176.4009,399.3954 -276.8969,486.79646 -65.5508,58.3181 -144.2727,61.2112 -206.9304,8.7553 -81.6149,-68.52 -74.3061,-150.13488 20.4037,-260.90886 109.3275,-126.83811 193.8355,-365.82061 224.4411,-628.17603 7.3088,-71.41306 14.5414,-310.47168 14.5414,-530.49698 v -398.10114 l -83.0614,10.20187 c -155.9211,17.51066 -416.8299,81.61492 -620.8672,153.02797 -110.774,37.9144 -208.4531,75.82879 -215.6857,83.06146 -18.9572,18.95719 43.7005,578.613235 112.2205,980.9017 96.2325,577.16671 217.1322,989.65701 346.8634,1184.93901 129.7312,193.8354 585.922,411.0438 1335.0739,634.0383 82.9853,24.8195 93.1872,20.4799 129.5789,-49.4867 z m 628.2522,10.2019 c 304.6094,-48.1163 494.1052,-64.1043 641.2709,-53.9024 119.5293,8.7553 562.6253,68.52 670.4301,90.3703 l 36.4678,8.7553 -36.4678,-30.6056 c -58.3182,-49.5628 -259.4624,-142.8261 -376.0225,-174.8782 -339.5546,-93.2634 -714.2067,-61.2112 -1015.9231,85.9545 -64.1042,32.0521 -132.6242,71.413 -153.0279,87.4772 l -36.4679,30.6056 43.7005,-7.3088 c 24.8956,-4.4158 125.4678,-21.9264 226.0399,-36.4679 z"
           id="path4531"
           transform="matrix(0.10000001,0,0,-0.09999999,-359.09998,-1803.4409)" />
      </g>
    </g>
  </g>
</svg>
